<?xml version="1.0" encoding="UTF-8"?>
<!DOCTYPE svg PUBLIC "-//W3C//DTD SVG 1.1//EN" "http://www.w3.org/Graphics/SVG/1.1/DTD/svg11.dtd">
<!-- Creator: CorelDRAW X7 -->
<svg xmlns="http://www.w3.org/2000/svg" xml:space="preserve" width="34px" height="48px" version="1.1" style="shape-rendering:geometricPrecision; text-rendering:geometricPrecision; image-rendering:optimizeQuality; fill-rule:evenodd; clip-rule:evenodd"
viewBox="0 0 34 48"
 xmlns:xlink="http://www.w3.org/1999/xlink">
 <defs>
  <style type="text/css">
   <![CDATA[
    .fil0 {fill:#FFFFFF}
   ]]>
  </style>
 </defs>
 <g id="Ebene_x0020_1">
  <metadata id="CorelCorpID_0Corel-Layer"/>
  <path class="fil0" d="M11 2c3,0 6,2 6,6 0,2 -1,4 -3,5l1 4c2,0 4,2 4,4l4 1c1,-1 2,-2 4,-2 3,0 5,2 5,5 0,3 -2,5 -5,5 -3,0 -5,-2 -5,-5 0,0 0,0 0,-1l-4 -1c-1,1 -2,2 -3,2 0,0 -1,0 -1,0l-1 2c2,1 3,4 3,6 0,4 -3,7 -7,7 -4,0 -8,-3 -8,-7 0,-4 4,-7 8,-7 0,0 1,0 2,0l1 -3c-1,0 -1,-1 -1,-2 0,-2 1,-3 2,-4l-1 -3c-1,0 -1,0 -1,0 -4,0 -6,-3 -6,-6 0,-4 2,-6 6,-6z"/>
 </g>
</svg>
