<?xml version="1.0" encoding="UTF-8"?>
<!DOCTYPE svg PUBLIC "-//W3C//DTD SVG 1.1//EN" "http://www.w3.org/Graphics/SVG/1.1/DTD/svg11.dtd">
<!-- Creator: CorelDRAW 2019 (64-Bit) -->
<svg xmlns="http://www.w3.org/2000/svg" xml:space="preserve" width="13mm" height="13mm" version="1.1" style="shape-rendering:geometricPrecision; text-rendering:geometricPrecision; image-rendering:optimizeQuality; fill-rule:evenodd; clip-rule:evenodd"
viewBox="0 0 1300 1300"
 xmlns:xlink="http://www.w3.org/1999/xlink"
 xmlns:xodm="http://www.corel.com/coreldraw/odm/2003">
 <defs>
  <style type="text/css">
   <![CDATA[
    .fil0 {fill:#337AB7}
   ]]>
  </style>
 </defs>
 <g id="Ebene_x0020_1">
  <metadata id="CorelCorpID_0Corel-Layer"/>
  <path class="fil0" d="M396.09 797.27c21.24,0 41.79,2.88 61.32,8.27l37.23 -71.18c-18.05,-20.97 -28.97,-48.28 -28.97,-78.14 0,-44.54 24.3,-83.4 60.37,-104.07l-34.15 -119.12c-9.83,1.58 -19.91,2.41 -30.18,2.41 -104.36,0 -188.95,-84.59 -188.95,-188.95 0,-104.36 84.59,-188.96 188.95,-188.96 104.36,0 188.95,84.6 188.95,188.96 0,72.23 -40.53,134.98 -100.09,166.78l35.3 123.12c66.02,0.2 119.47,53.76 119.47,119.83 0,3 -0.11,5.99 -0.33,8.94l127.79 33.42c27.27,-43.96 75.97,-73.24 131.51,-73.24 85.42,0 154.66,69.25 154.66,154.66 0,85.42 -69.24,154.67 -154.66,154.67 -85.41,0 -154.66,-69.25 -154.66,-154.67 0,-7.85 0.58,-15.56 1.72,-23.09l-126.85 -33.18c-21.57,31.59 -57.88,52.32 -99.02,52.32 -13.8,0 -27.05,-2.34 -39.38,-6.63l-31.69 60.57c66.97,40.24 111.79,113.58 111.79,197.41 0,127.1 -103.02,230.13 -230.13,230.13 -127.1,0 -230.12,-103.03 -230.12,-230.13 0,-127.11 103.01,-230.13 230.12,-230.13z"/>
 </g>
</svg>
